# xmcd CD database file
#
# Track frame offsets:
#	150
#	9686
#	24200
#	41209
#	58590
#	78442
#	98627
#	117800
#
# Disc length: 1898 seconds
#
# Revision: 0
# Processed by: cddbd v1.5.1PL0 Copyright (c) Steve Scherf et al.
# Submitted via: CDex 1.60beta1
#
DISCID=58076808
DTITLE=The Jimi Hendrix Experience - No More A Rolling Stone [CD2]
DYEAR=1967
DGENRE=Rock
TTITLE0=Sgt. Peppers Lonely Hearts Club Band
TTITLE1=Fire
TTITLE2=The Wind Cries Mary
TTITLE3=Foxy Lady
TTITLE4=Hey Joe
TTITLE5=I Don't Live Today
TTITLE6=The Burning Of The Midnight Lamp
TTITLE7=Purple Haze
EXTD=YEAR: 1967
EXTT0=
EXTT1=
EXTT2=
EXTT3=
EXTT4=
EXTT5=
EXTT6=
EXTT7=
PLAYORDER=
